<?xml version="1.0" encoding="UTF-8" standalone="no"?>
<!DOCTYPE svg PUBLIC "-//W3C//DTD SVG 1.1//EN"
 "http://www.w3.org/Graphics/SVG/1.1/DTD/svg11.dtd">
<!-- Generated by graphviz version 5.0.1 (20220820.1526)
 -->
<!-- Pages: 1 -->
<svg width="1188pt" height="476pt"
 viewBox="0.00 0.00 1187.86 476.00" xmlns="http://www.w3.org/2000/svg" xmlns:xlink="http://www.w3.org/1999/xlink">
<g id="graph0" class="graph" transform="scale(1 1) rotate(0) translate(4 472)">
<polygon fill="white" stroke="none" points="-4,4 -4,-472 1183.86,-472 1183.86,4 -4,4"/>
<!-- [root] aws_internet_gateway.igw (expand) -->
<g id="node1" class="node">
<title>[root] aws_internet_gateway.igw (expand)</title>
<polygon fill="none" stroke="black" points="1008.36,-180 846.36,-180 846.36,-144 1008.36,-144 1008.36,-180"/>
<text text-anchor="middle" x="927.36" y="-158.3" font-family="Times New Roman,serif" font-size="14.00">aws_internet_gateway.igw</text>
</g>
<!-- [root] aws_vpc.demo_vpc (expand) -->
<g id="node12" class="node">
<title>[root] aws_vpc.demo_vpc (expand)</title>
<polygon fill="none" stroke="black" points="694.86,-108 563.86,-108 563.86,-72 694.86,-72 694.86,-108"/>
<text text-anchor="middle" x="629.36" y="-86.3" font-family="Times New Roman,serif" font-size="14.00">aws_vpc.demo_vpc</text>
</g>
<!-- [root] aws_internet_gateway.igw (expand)&#45;&gt;[root] aws_vpc.demo_vpc (expand) -->
<g id="edge1" class="edge">
<title>[root] aws_internet_gateway.igw (expand)&#45;&gt;[root] aws_vpc.demo_vpc (expand)</title>
<path fill="none" stroke="black" d="M854.85,-143.97C809.42,-133.3 750.99,-119.57 704.99,-108.76"/>
<polygon fill="black" stroke="black" points="705.61,-105.31 695.07,-106.44 704.01,-112.13 705.61,-105.31"/>
</g>
<!-- [root] aws_route_table.demo_pri_rt (expand) -->
<g id="node2" class="node">
<title>[root] aws_route_table.demo_pri_rt (expand)</title>
<polygon fill="none" stroke="black" points="480.36,-180 298.36,-180 298.36,-144 480.36,-144 480.36,-180"/>
<text text-anchor="middle" x="389.36" y="-158.3" font-family="Times New Roman,serif" font-size="14.00">aws_route_table.demo_pri_rt</text>
</g>
<!-- [root] aws_route_table.demo_pri_rt (expand)&#45;&gt;[root] aws_vpc.demo_vpc (expand) -->
<g id="edge2" class="edge">
<title>[root] aws_route_table.demo_pri_rt (expand)&#45;&gt;[root] aws_vpc.demo_vpc (expand)</title>
<path fill="none" stroke="black" d="M447.77,-143.97C481.88,-134.01 525.11,-121.41 560.84,-110.99"/>
<polygon fill="black" stroke="black" points="562.08,-114.27 570.7,-108.11 560.12,-107.55 562.08,-114.27"/>
</g>
<!-- [root] aws_route_table.demo_pub_rt (expand) -->
<g id="node3" class="node">
<title>[root] aws_route_table.demo_pub_rt (expand)</title>
<polygon fill="none" stroke="black" points="1000.36,-252 812.36,-252 812.36,-216 1000.36,-216 1000.36,-252"/>
<text text-anchor="middle" x="906.36" y="-230.3" font-family="Times New Roman,serif" font-size="14.00">aws_route_table.demo_pub_rt</text>
</g>
<!-- [root] aws_route_table.demo_pub_rt (expand)&#45;&gt;[root] aws_internet_gateway.igw (expand) -->
<g id="edge3" class="edge">
<title>[root] aws_route_table.demo_pub_rt (expand)&#45;&gt;[root] aws_internet_gateway.igw (expand)</title>
<path fill="none" stroke="black" d="M911.56,-215.7C913.89,-207.9 916.71,-198.51 919.32,-189.83"/>
<polygon fill="black" stroke="black" points="922.71,-190.69 922.23,-180.1 916.01,-188.68 922.71,-190.69"/>
</g>
<!-- [root] var.igw_dest_cidr -->
<g id="node16" class="node">
<title>[root] var.igw_dest_cidr</title>
<polygon fill="none" stroke="black" points="821.86,-180 710.86,-180 710.86,-144 827.86,-144 827.86,-174 821.86,-180"/>
<polyline fill="none" stroke="black" points="821.86,-180 821.86,-174"/>
<polyline fill="none" stroke="black" points="827.86,-174 821.86,-174"/>
<text text-anchor="middle" x="769.36" y="-158.3" font-family="Times New Roman,serif" font-size="14.00">var.igw_dest_cidr</text>
</g>
<!-- [root] aws_route_table.demo_pub_rt (expand)&#45;&gt;[root] var.igw_dest_cidr -->
<g id="edge4" class="edge">
<title>[root] aws_route_table.demo_pub_rt (expand)&#45;&gt;[root] var.igw_dest_cidr</title>
<path fill="none" stroke="black" d="M872.85,-215.88C854.52,-206.51 831.63,-194.81 812.04,-184.8"/>
<polygon fill="black" stroke="black" points="813.5,-181.62 803.01,-180.19 810.32,-187.86 813.5,-181.62"/>
</g>
<!-- [root] aws_route_table_association.demo_pri_rt_ass_1 (expand) -->
<g id="node4" class="node">
<title>[root] aws_route_table_association.demo_pri_rt_ass_1 (expand)</title>
<polygon fill="none" stroke="black" points="305.86,-252 14.86,-252 14.86,-216 305.86,-216 305.86,-252"/>
<text text-anchor="middle" x="160.36" y="-230.3" font-family="Times New Roman,serif" font-size="14.00">aws_route_table_association.demo_pri_rt_ass_1</text>
</g>
<!-- [root] aws_route_table_association.demo_pri_rt_ass_1 (expand)&#45;&gt;[root] aws_route_table.demo_pri_rt (expand) -->
<g id="edge5" class="edge">
<title>[root] aws_route_table_association.demo_pri_rt_ass_1 (expand)&#45;&gt;[root] aws_route_table.demo_pri_rt (expand)</title>
<path fill="none" stroke="black" d="M216.09,-215.97C248.5,-206.06 289.54,-193.51 323.54,-183.12"/>
<polygon fill="black" stroke="black" points="324.85,-186.38 333.39,-180.11 322.8,-179.69 324.85,-186.38"/>
</g>
<!-- [root] aws_subnet.demo_pri_1 (expand) -->
<g id="node8" class="node">
<title>[root] aws_subnet.demo_pri_1 (expand)</title>
<polygon fill="none" stroke="black" points="269.86,-180 114.86,-180 114.86,-144 269.86,-144 269.86,-180"/>
<text text-anchor="middle" x="192.36" y="-158.3" font-family="Times New Roman,serif" font-size="14.00">aws_subnet.demo_pri_1</text>
</g>
<!-- [root] aws_route_table_association.demo_pri_rt_ass_1 (expand)&#45;&gt;[root] aws_subnet.demo_pri_1 (expand) -->
<g id="edge6" class="edge">
<title>[root] aws_route_table_association.demo_pri_rt_ass_1 (expand)&#45;&gt;[root] aws_subnet.demo_pri_1 (expand)</title>
<path fill="none" stroke="black" d="M168.27,-215.7C171.92,-207.73 176.32,-198.1 180.36,-189.26"/>
<polygon fill="black" stroke="black" points="183.57,-190.65 184.54,-180.1 177.2,-187.74 183.57,-190.65"/>
</g>
<!-- [root] aws_route_table_association.demo_pri_rt_ass_2 (expand) -->
<g id="node5" class="node">
<title>[root] aws_route_table_association.demo_pri_rt_ass_2 (expand)</title>
<polygon fill="none" stroke="black" points="614.86,-252 323.86,-252 323.86,-216 614.86,-216 614.86,-252"/>
<text text-anchor="middle" x="469.36" y="-230.3" font-family="Times New Roman,serif" font-size="14.00">aws_route_table_association.demo_pri_rt_ass_2</text>
</g>
<!-- [root] aws_route_table_association.demo_pri_rt_ass_2 (expand)&#45;&gt;[root] aws_route_table.demo_pri_rt (expand) -->
<g id="edge7" class="edge">
<title>[root] aws_route_table_association.demo_pri_rt_ass_2 (expand)&#45;&gt;[root] aws_route_table.demo_pri_rt (expand)</title>
<path fill="none" stroke="black" d="M449.59,-215.7C439.61,-206.97 427.35,-196.24 416.51,-186.75"/>
<polygon fill="black" stroke="black" points="418.74,-184.06 408.91,-180.1 414.13,-189.32 418.74,-184.06"/>
</g>
<!-- [root] aws_subnet.demo_pri_2 (expand) -->
<g id="node9" class="node">
<title>[root] aws_subnet.demo_pri_2 (expand)</title>
<polygon fill="none" stroke="black" points="653.86,-180 498.86,-180 498.86,-144 653.86,-144 653.86,-180"/>
<text text-anchor="middle" x="576.36" y="-158.3" font-family="Times New Roman,serif" font-size="14.00">aws_subnet.demo_pri_2</text>
</g>
<!-- [root] aws_route_table_association.demo_pri_rt_ass_2 (expand)&#45;&gt;[root] aws_subnet.demo_pri_2 (expand) -->
<g id="edge8" class="edge">
<title>[root] aws_route_table_association.demo_pri_rt_ass_2 (expand)&#45;&gt;[root] aws_subnet.demo_pri_2 (expand)</title>
<path fill="none" stroke="black" d="M495.54,-215.88C509.4,-206.81 526.61,-195.55 541.58,-185.76"/>
<polygon fill="black" stroke="black" points="543.64,-188.59 550.09,-180.19 539.8,-182.74 543.64,-188.59"/>
</g>
<!-- [root] aws_route_table_association.demo_pub_rt_ass_1 (expand) -->
<g id="node6" class="node">
<title>[root] aws_route_table_association.demo_pub_rt_ass_1 (expand)</title>
<polygon fill="none" stroke="black" points="845.36,-324 547.36,-324 547.36,-288 845.36,-288 845.36,-324"/>
<text text-anchor="middle" x="696.36" y="-302.3" font-family="Times New Roman,serif" font-size="14.00">aws_route_table_association.demo_pub_rt_ass_1</text>
</g>
<!-- [root] aws_route_table_association.demo_pub_rt_ass_1 (expand)&#45;&gt;[root] aws_route_table.demo_pub_rt (expand) -->
<g id="edge9" class="edge">
<title>[root] aws_route_table_association.demo_pub_rt_ass_1 (expand)&#45;&gt;[root] aws_route_table.demo_pub_rt (expand)</title>
<path fill="none" stroke="black" d="M747.47,-287.97C776.94,-278.14 814.18,-265.73 845.2,-255.39"/>
<polygon fill="black" stroke="black" points="846.65,-258.59 855.03,-252.11 844.44,-251.95 846.65,-258.59"/>
</g>
<!-- [root] aws_subnet.demo_pub_1 (expand) -->
<g id="node10" class="node">
<title>[root] aws_subnet.demo_pub_1 (expand)</title>
<polygon fill="none" stroke="black" points="793.86,-252 632.86,-252 632.86,-216 793.86,-216 793.86,-252"/>
<text text-anchor="middle" x="713.36" y="-230.3" font-family="Times New Roman,serif" font-size="14.00">aws_subnet.demo_pub_1</text>
</g>
<!-- [root] aws_route_table_association.demo_pub_rt_ass_1 (expand)&#45;&gt;[root] aws_subnet.demo_pub_1 (expand) -->
<g id="edge10" class="edge">
<title>[root] aws_route_table_association.demo_pub_rt_ass_1 (expand)&#45;&gt;[root] aws_subnet.demo_pub_1 (expand)</title>
<path fill="none" stroke="black" d="M700.57,-287.7C702.46,-279.9 704.74,-270.51 706.85,-261.83"/>
<polygon fill="black" stroke="black" points="710.25,-262.65 709.21,-252.1 703.45,-261 710.25,-262.65"/>
</g>
<!-- [root] aws_route_table_association.demo_pub_rt_ass_2 (expand) -->
<g id="node7" class="node">
<title>[root] aws_route_table_association.demo_pub_rt_ass_2 (expand)</title>
<polygon fill="none" stroke="black" points="1161.36,-324 863.36,-324 863.36,-288 1161.36,-288 1161.36,-324"/>
<text text-anchor="middle" x="1012.36" y="-302.3" font-family="Times New Roman,serif" font-size="14.00">aws_route_table_association.demo_pub_rt_ass_2</text>
</g>
<!-- [root] aws_route_table_association.demo_pub_rt_ass_2 (expand)&#45;&gt;[root] aws_route_table.demo_pub_rt (expand) -->
<g id="edge11" class="edge">
<title>[root] aws_route_table_association.demo_pub_rt_ass_2 (expand)&#45;&gt;[root] aws_route_table.demo_pub_rt (expand)</title>
<path fill="none" stroke="black" d="M986.43,-287.88C972.7,-278.81 955.66,-267.55 940.83,-257.76"/>
<polygon fill="black" stroke="black" points="942.67,-254.78 932.39,-252.19 938.81,-260.62 942.67,-254.78"/>
</g>
<!-- [root] aws_subnet.demo_pub_2 (expand) -->
<g id="node11" class="node">
<title>[root] aws_subnet.demo_pub_2 (expand)</title>
<polygon fill="none" stroke="black" points="1179.86,-252 1018.86,-252 1018.86,-216 1179.86,-216 1179.86,-252"/>
<text text-anchor="middle" x="1099.36" y="-230.3" font-family="Times New Roman,serif" font-size="14.00">aws_subnet.demo_pub_2</text>
</g>
<!-- [root] aws_route_table_association.demo_pub_rt_ass_2 (expand)&#45;&gt;[root] aws_subnet.demo_pub_2 (expand) -->
<g id="edge12" class="edge">
<title>[root] aws_route_table_association.demo_pub_rt_ass_2 (expand)&#45;&gt;[root] aws_subnet.demo_pub_2 (expand)</title>
<path fill="none" stroke="black" d="M1033.87,-287.7C1044.83,-278.88 1058.31,-268.03 1070.19,-258.47"/>
<polygon fill="black" stroke="black" points="1072.51,-261.1 1078.11,-252.1 1068.12,-255.65 1072.51,-261.1"/>
</g>
<!-- [root] aws_subnet.demo_pri_1 (expand)&#45;&gt;[root] aws_vpc.demo_vpc (expand) -->
<g id="edge13" class="edge">
<title>[root] aws_subnet.demo_pri_1 (expand)&#45;&gt;[root] aws_vpc.demo_vpc (expand)</title>
<path fill="none" stroke="black" d="M269.91,-147.28C276.49,-146.15 283.04,-145.05 289.36,-144 380.23,-128.96 484.96,-112.81 553.9,-102.35"/>
<polygon fill="black" stroke="black" points="554.45,-105.8 563.81,-100.84 553.4,-98.88 554.45,-105.8"/>
</g>
<!-- [root] aws_subnet.demo_pri_2 (expand)&#45;&gt;[root] aws_vpc.demo_vpc (expand) -->
<g id="edge14" class="edge">
<title>[root] aws_subnet.demo_pri_2 (expand)&#45;&gt;[root] aws_vpc.demo_vpc (expand)</title>
<path fill="none" stroke="black" d="M589.47,-143.7C595.75,-135.39 603.41,-125.28 610.33,-116.14"/>
<polygon fill="black" stroke="black" points="613.17,-118.19 616.41,-108.1 607.59,-113.96 613.17,-118.19"/>
</g>
<!-- [root] aws_subnet.demo_pub_1 (expand)&#45;&gt;[root] aws_vpc.demo_vpc (expand) -->
<g id="edge15" class="edge">
<title>[root] aws_subnet.demo_pub_1 (expand)&#45;&gt;[root] aws_vpc.demo_vpc (expand)</title>
<path fill="none" stroke="black" d="M703.77,-215.83C693.65,-197.83 677.16,-168.76 662.36,-144 657,-135.02 650.99,-125.28 645.59,-116.63"/>
<polygon fill="black" stroke="black" points="648.5,-114.7 640.22,-108.09 642.58,-118.42 648.5,-114.7"/>
</g>
<!-- [root] aws_subnet.demo_pub_2 (expand)&#45;&gt;[root] aws_vpc.demo_vpc (expand) -->
<g id="edge16" class="edge">
<title>[root] aws_subnet.demo_pub_2 (expand)&#45;&gt;[root] aws_vpc.demo_vpc (expand)</title>
<path fill="none" stroke="black" d="M1089.02,-215.94C1075.4,-195.15 1049.4,-160.72 1017.36,-144 964.54,-116.43 802.13,-101.77 704.98,-95.26"/>
<polygon fill="black" stroke="black" points="705.13,-91.76 694.92,-94.6 704.67,-98.75 705.13,-91.76"/>
</g>
<!-- [root] provider[&quot;registry.terraform.io/hashicorp/aws&quot;] -->
<g id="node13" class="node">
<title>[root] provider[&quot;registry.terraform.io/hashicorp/aws&quot;]</title>
<polygon fill="none" stroke="black" points="257.36,-36 0.14,-18 257.36,0 514.59,-18 257.36,-36"/>
<text text-anchor="middle" x="257.36" y="-14.3" font-family="Times New Roman,serif" font-size="14.00">provider[&quot;registry.terraform.io/hashicorp/aws&quot;]</text>
</g>
<!-- [root] aws_vpc.demo_vpc (expand)&#45;&gt;[root] provider[&quot;registry.terraform.io/hashicorp/aws&quot;] -->
<g id="edge17" class="edge">
<title>[root] aws_vpc.demo_vpc (expand)&#45;&gt;[root] provider[&quot;registry.terraform.io/hashicorp/aws&quot;]</title>
<path fill="none" stroke="black" d="M563.71,-76.65C499.33,-64.53 401.24,-46.07 333.48,-33.32"/>
<polygon fill="black" stroke="black" points="333.77,-29.82 323.3,-31.41 332.48,-36.7 333.77,-29.82"/>
</g>
<!-- [root] var.cidr_block -->
<g id="node14" class="node">
<title>[root] var.cidr_block</title>
<polygon fill="none" stroke="black" points="624.36,-36 532.36,-36 532.36,0 630.36,0 630.36,-30 624.36,-36"/>
<polyline fill="none" stroke="black" points="624.36,-36 624.36,-30"/>
<polyline fill="none" stroke="black" points="630.36,-30 624.36,-30"/>
<text text-anchor="middle" x="581.36" y="-14.3" font-family="Times New Roman,serif" font-size="14.00">var.cidr_block</text>
</g>
<!-- [root] aws_vpc.demo_vpc (expand)&#45;&gt;[root] var.cidr_block -->
<g id="edge18" class="edge">
<title>[root] aws_vpc.demo_vpc (expand)&#45;&gt;[root] var.cidr_block</title>
<path fill="none" stroke="black" d="M617.5,-71.7C611.86,-63.47 605.01,-53.48 598.8,-44.42"/>
<polygon fill="black" stroke="black" points="601.63,-42.37 593.09,-36.1 595.86,-46.33 601.63,-42.37"/>
</g>
<!-- [root] var.env -->
<g id="node15" class="node">
<title>[root] var.env</title>
<polygon fill="none" stroke="black" points="699.86,-36 648.86,-36 648.86,0 705.86,0 705.86,-30 699.86,-36"/>
<polyline fill="none" stroke="black" points="699.86,-36 699.86,-30"/>
<polyline fill="none" stroke="black" points="705.86,-30 699.86,-30"/>
<text text-anchor="middle" x="677.36" y="-14.3" font-family="Times New Roman,serif" font-size="14.00">var.env</text>
</g>
<!-- [root] aws_vpc.demo_vpc (expand)&#45;&gt;[root] var.env -->
<g id="edge19" class="edge">
<title>[root] aws_vpc.demo_vpc (expand)&#45;&gt;[root] var.env</title>
<path fill="none" stroke="black" d="M641.23,-71.7C646.87,-63.47 653.72,-53.48 659.93,-44.42"/>
<polygon fill="black" stroke="black" points="662.87,-46.33 665.64,-36.1 657.09,-42.37 662.87,-46.33"/>
</g>
<!-- [root] var.project_name -->
<g id="node17" class="node">
<title>[root] var.project_name</title>
<polygon fill="none" stroke="black" points="830.86,-36 723.86,-36 723.86,0 836.86,0 836.86,-30 830.86,-36"/>
<polyline fill="none" stroke="black" points="830.86,-36 830.86,-30"/>
<polyline fill="none" stroke="black" points="836.86,-30 830.86,-30"/>
<text text-anchor="middle" x="780.36" y="-14.3" font-family="Times New Roman,serif" font-size="14.00">var.project_name</text>
</g>
<!-- [root] aws_vpc.demo_vpc (expand)&#45;&gt;[root] var.project_name -->
<g id="edge20" class="edge">
<title>[root] aws_vpc.demo_vpc (expand)&#45;&gt;[root] var.project_name</title>
<path fill="none" stroke="black" d="M666.3,-71.88C686.85,-62.35 712.62,-50.41 734.45,-40.28"/>
<polygon fill="black" stroke="black" points="735.94,-43.45 743.55,-36.07 733,-37.1 735.94,-43.45"/>
</g>
<!-- [root] provider[&quot;registry.terraform.io/hashicorp/aws&quot;] (close) -->
<g id="node18" class="node">
<title>[root] provider[&quot;registry.terraform.io/hashicorp/aws&quot;] (close)</title>
<ellipse fill="none" stroke="black" cx="591.36" cy="-378" rx="232.86" ry="18"/>
<text text-anchor="middle" x="591.36" y="-374.3" font-family="Times New Roman,serif" font-size="14.00">[root] provider[&quot;registry.terraform.io/hashicorp/aws&quot;] (close)</text>
</g>
<!-- [root] provider[&quot;registry.terraform.io/hashicorp/aws&quot;] (close)&#45;&gt;[root] aws_route_table_association.demo_pri_rt_ass_1 (expand) -->
<g id="edge21" class="edge">
<title>[root] provider[&quot;registry.terraform.io/hashicorp/aws&quot;] (close)&#45;&gt;[root] aws_route_table_association.demo_pri_rt_ass_1 (expand)</title>
<path fill="none" stroke="black" d="M540.66,-360.29C461.16,-334.1 307.47,-283.47 221.81,-255.24"/>
<polygon fill="black" stroke="black" points="222.81,-251.89 212.22,-252.08 220.62,-258.54 222.81,-251.89"/>
</g>
<!-- [root] provider[&quot;registry.terraform.io/hashicorp/aws&quot;] (close)&#45;&gt;[root] aws_route_table_association.demo_pri_rt_ass_2 (expand) -->
<g id="edge22" class="edge">
<title>[root] provider[&quot;registry.terraform.io/hashicorp/aws&quot;] (close)&#45;&gt;[root] aws_route_table_association.demo_pri_rt_ass_2 (expand)</title>
<path fill="none" stroke="black" d="M573.12,-359.87C562.63,-349.75 549.38,-336.5 538.36,-324 520.26,-303.45 501.31,-278.75 487.86,-260.58"/>
<polygon fill="black" stroke="black" points="490.47,-258.22 481.72,-252.24 484.83,-262.37 490.47,-258.22"/>
</g>
<!-- [root] provider[&quot;registry.terraform.io/hashicorp/aws&quot;] (close)&#45;&gt;[root] aws_route_table_association.demo_pub_rt_ass_1 (expand) -->
<g id="edge23" class="edge">
<title>[root] provider[&quot;registry.terraform.io/hashicorp/aws&quot;] (close)&#45;&gt;[root] aws_route_table_association.demo_pub_rt_ass_1 (expand)</title>
<path fill="none" stroke="black" d="M616.78,-360.05C630.48,-350.92 647.57,-339.53 662.39,-329.65"/>
<polygon fill="black" stroke="black" points="664.44,-332.49 670.82,-324.03 660.55,-326.67 664.44,-332.49"/>
</g>
<!-- [root] provider[&quot;registry.terraform.io/hashicorp/aws&quot;] (close)&#45;&gt;[root] aws_route_table_association.demo_pub_rt_ass_2 (expand) -->
<g id="edge24" class="edge">
<title>[root] provider[&quot;registry.terraform.io/hashicorp/aws&quot;] (close)&#45;&gt;[root] aws_route_table_association.demo_pub_rt_ass_2 (expand)</title>
<path fill="none" stroke="black" d="M684.8,-361.46C748.28,-350.91 832.58,-336.89 899.77,-325.72"/>
<polygon fill="black" stroke="black" points="900.69,-329.12 909.98,-324.02 899.54,-322.21 900.69,-329.12"/>
</g>
<!-- [root] root -->
<g id="node19" class="node">
<title>[root] root</title>
<ellipse fill="none" stroke="black" cx="591.36" cy="-450" rx="49.29" ry="18"/>
<text text-anchor="middle" x="591.36" y="-446.3" font-family="Times New Roman,serif" font-size="14.00">[root] root</text>
</g>
<!-- [root] root&#45;&gt;[root] provider[&quot;registry.terraform.io/hashicorp/aws&quot;] (close) -->
<g id="edge25" class="edge">
<title>[root] root&#45;&gt;[root] provider[&quot;registry.terraform.io/hashicorp/aws&quot;] (close)</title>
<path fill="none" stroke="black" d="M591.36,-431.7C591.36,-423.98 591.36,-414.71 591.36,-406.11"/>
<polygon fill="black" stroke="black" points="594.86,-406.1 591.36,-396.1 587.86,-406.1 594.86,-406.1"/>
</g>
</g>
</svg>
