<?xml version="1.0" encoding="UTF-8" standalone="no"?>
<!DOCTYPE svg PUBLIC "-//W3C//DTD SVG 1.1//EN"
 "http://www.w3.org/Graphics/SVG/1.1/DTD/svg11.dtd">
<!-- Generated by graphviz version 5.0.1 (20220820.1526)
 -->
<!-- Pages: 1 -->
<svg width="1462pt" height="404pt"
 viewBox="0.00 0.00 1462.00 404.00" xmlns="http://www.w3.org/2000/svg" xmlns:xlink="http://www.w3.org/1999/xlink">
<g id="graph0" class="graph" transform="scale(1 1) rotate(0) translate(4 400)">
<polygon fill="white" stroke="none" points="-4,4 -4,-400 1458,-400 1458,4 -4,4"/>
<!-- [root] aws_internet_gateway.my_gw (expand) -->
<g id="node1" class="node">
<title>[root] aws_internet_gateway.my_gw (expand)</title>
<polygon fill="none" stroke="black" points="829,-180 645,-180 645,-144 829,-144 829,-180"/>
<text text-anchor="middle" x="737" y="-158.3" font-family="Times New Roman,serif" font-size="14.00">aws_internet_gateway.my_gw</text>
</g>
<!-- [root] aws_vpc.tf_vpc (expand) -->
<g id="node13" class="node">
<title>[root] aws_vpc.tf_vpc (expand)</title>
<polygon fill="none" stroke="black" points="790.5,-108 683.5,-108 683.5,-72 790.5,-72 790.5,-108"/>
<text text-anchor="middle" x="737" y="-86.3" font-family="Times New Roman,serif" font-size="14.00">aws_vpc.tf_vpc</text>
</g>
<!-- [root] aws_internet_gateway.my_gw (expand)&#45;&gt;[root] aws_vpc.tf_vpc (expand) -->
<g id="edge1" class="edge">
<title>[root] aws_internet_gateway.my_gw (expand)&#45;&gt;[root] aws_vpc.tf_vpc (expand)</title>
<path fill="none" stroke="black" d="M737,-143.7C737,-135.98 737,-126.71 737,-118.11"/>
<polygon fill="black" stroke="black" points="740.5,-118.1 737,-108.1 733.5,-118.1 740.5,-118.1"/>
</g>
<!-- [root] aws_route.igw_route (expand) -->
<g id="node2" class="node">
<title>[root] aws_route.igw_route (expand)</title>
<polygon fill="none" stroke="black" points="810,-252 676,-252 676,-216 810,-216 810,-252"/>
<text text-anchor="middle" x="743" y="-230.3" font-family="Times New Roman,serif" font-size="14.00">aws_route.igw_route</text>
</g>
<!-- [root] aws_route.igw_route (expand)&#45;&gt;[root] aws_internet_gateway.my_gw (expand) -->
<g id="edge2" class="edge">
<title>[root] aws_route.igw_route (expand)&#45;&gt;[root] aws_internet_gateway.my_gw (expand)</title>
<path fill="none" stroke="black" d="M741.52,-215.7C740.86,-207.98 740.06,-198.71 739.32,-190.11"/>
<polygon fill="black" stroke="black" points="742.81,-189.77 738.47,-180.1 735.83,-190.37 742.81,-189.77"/>
</g>
<!-- [root] aws_route_table.pub_rt (expand) -->
<g id="node4" class="node">
<title>[root] aws_route_table.pub_rt (expand)</title>
<polygon fill="none" stroke="black" points="1164.5,-180 1015.5,-180 1015.5,-144 1164.5,-144 1164.5,-180"/>
<text text-anchor="middle" x="1090" y="-158.3" font-family="Times New Roman,serif" font-size="14.00">aws_route_table.pub_rt</text>
</g>
<!-- [root] aws_route.igw_route (expand)&#45;&gt;[root] aws_route_table.pub_rt (expand) -->
<g id="edge3" class="edge">
<title>[root] aws_route.igw_route (expand)&#45;&gt;[root] aws_route_table.pub_rt (expand)</title>
<path fill="none" stroke="black" d="M810.11,-217.87C813.11,-217.23 816.09,-216.61 819,-216 898.79,-199.4 921.31,-196.59 1005.35,-180.11"/>
<polygon fill="black" stroke="black" points="1006.22,-183.51 1015.35,-178.15 1004.86,-176.64 1006.22,-183.51"/>
</g>
<!-- [root] aws_route_table.private_rt (expand) -->
<g id="node3" class="node">
<title>[root] aws_route_table.private_rt (expand)</title>
<polygon fill="none" stroke="black" points="442.5,-180 277.5,-180 277.5,-144 442.5,-144 442.5,-180"/>
<text text-anchor="middle" x="360" y="-158.3" font-family="Times New Roman,serif" font-size="14.00">aws_route_table.private_rt</text>
</g>
<!-- [root] aws_route_table.private_rt (expand)&#45;&gt;[root] aws_vpc.tf_vpc (expand) -->
<g id="edge4" class="edge">
<title>[root] aws_route_table.private_rt (expand)&#45;&gt;[root] aws_vpc.tf_vpc (expand)</title>
<path fill="none" stroke="black" d="M442.73,-145.64C512.17,-132.75 609.92,-114.6 673.37,-102.81"/>
<polygon fill="black" stroke="black" points="674.05,-106.25 683.25,-100.98 672.78,-99.37 674.05,-106.25"/>
</g>
<!-- [root] aws_route_table.pub_rt (expand)&#45;&gt;[root] aws_vpc.tf_vpc (expand) -->
<g id="edge5" class="edge">
<title>[root] aws_route_table.pub_rt (expand)&#45;&gt;[root] aws_vpc.tf_vpc (expand)</title>
<path fill="none" stroke="black" d="M1015.35,-145.87C1012.19,-145.24 1009.06,-144.61 1006,-144 935.69,-129.96 854.99,-114.09 800.47,-103.41"/>
<polygon fill="black" stroke="black" points="801.09,-99.97 790.61,-101.48 799.75,-106.83 801.09,-99.97"/>
</g>
<!-- [root] aws_route_table_association.private_sub_1_associate (expand) -->
<g id="node5" class="node">
<title>[root] aws_route_table_association.private_sub_1_associate (expand)</title>
<polygon fill="none" stroke="black" points="320,-252 0,-252 0,-216 320,-216 320,-252"/>
<text text-anchor="middle" x="160" y="-230.3" font-family="Times New Roman,serif" font-size="14.00">aws_route_table_association.private_sub_1_associate</text>
</g>
<!-- [root] aws_route_table_association.private_sub_1_associate (expand)&#45;&gt;[root] aws_route_table.private_rt (expand) -->
<g id="edge6" class="edge">
<title>[root] aws_route_table_association.private_sub_1_associate (expand)&#45;&gt;[root] aws_route_table.private_rt (expand)</title>
<path fill="none" stroke="black" d="M208.67,-215.97C236.61,-206.19 271.9,-193.84 301.36,-183.52"/>
<polygon fill="black" stroke="black" points="302.83,-186.72 311.11,-180.11 300.52,-180.11 302.83,-186.72"/>
</g>
<!-- [root] aws_subnet.private_sub_1 (expand) -->
<g id="node9" class="node">
<title>[root] aws_subnet.private_sub_1 (expand)</title>
<polygon fill="none" stroke="black" points="254,-180 88,-180 88,-144 254,-144 254,-180"/>
<text text-anchor="middle" x="171" y="-158.3" font-family="Times New Roman,serif" font-size="14.00">aws_subnet.private_sub_1</text>
</g>
<!-- [root] aws_route_table_association.private_sub_1_associate (expand)&#45;&gt;[root] aws_subnet.private_sub_1 (expand) -->
<g id="edge7" class="edge">
<title>[root] aws_route_table_association.private_sub_1_associate (expand)&#45;&gt;[root] aws_subnet.private_sub_1 (expand)</title>
<path fill="none" stroke="black" d="M162.72,-215.7C163.93,-207.98 165.39,-198.71 166.74,-190.11"/>
<polygon fill="black" stroke="black" points="170.22,-190.53 168.31,-180.1 163.3,-189.44 170.22,-190.53"/>
</g>
<!-- [root] aws_route_table_association.private_sub_2_associate (expand) -->
<g id="node6" class="node">
<title>[root] aws_route_table_association.private_sub_2_associate (expand)</title>
<polygon fill="none" stroke="black" points="658,-252 338,-252 338,-216 658,-216 658,-252"/>
<text text-anchor="middle" x="498" y="-230.3" font-family="Times New Roman,serif" font-size="14.00">aws_route_table_association.private_sub_2_associate</text>
</g>
<!-- [root] aws_route_table_association.private_sub_2_associate (expand)&#45;&gt;[root] aws_route_table.private_rt (expand) -->
<g id="edge8" class="edge">
<title>[root] aws_route_table_association.private_sub_2_associate (expand)&#45;&gt;[root] aws_route_table.private_rt (expand)</title>
<path fill="none" stroke="black" d="M464.24,-215.88C445.78,-206.51 422.72,-194.81 402.98,-184.8"/>
<polygon fill="black" stroke="black" points="404.39,-181.59 393.89,-180.19 401.22,-187.83 404.39,-181.59"/>
</g>
<!-- [root] aws_subnet.private_sub_2 (expand) -->
<g id="node10" class="node">
<title>[root] aws_subnet.private_sub_2 (expand)</title>
<polygon fill="none" stroke="black" points="627,-180 461,-180 461,-144 627,-144 627,-180"/>
<text text-anchor="middle" x="544" y="-158.3" font-family="Times New Roman,serif" font-size="14.00">aws_subnet.private_sub_2</text>
</g>
<!-- [root] aws_route_table_association.private_sub_2_associate (expand)&#45;&gt;[root] aws_subnet.private_sub_2 (expand) -->
<g id="edge9" class="edge">
<title>[root] aws_route_table_association.private_sub_2_associate (expand)&#45;&gt;[root] aws_subnet.private_sub_2 (expand)</title>
<path fill="none" stroke="black" d="M509.37,-215.7C514.72,-207.56 521.2,-197.69 527.11,-188.7"/>
<polygon fill="black" stroke="black" points="530.19,-190.38 532.76,-180.1 524.34,-186.54 530.19,-190.38"/>
</g>
<!-- [root] aws_route_table_association.pub_sub_1_associate (expand) -->
<g id="node7" class="node">
<title>[root] aws_route_table_association.pub_sub_1_associate (expand)</title>
<polygon fill="none" stroke="black" points="1132,-252 828,-252 828,-216 1132,-216 1132,-252"/>
<text text-anchor="middle" x="980" y="-230.3" font-family="Times New Roman,serif" font-size="14.00">aws_route_table_association.pub_sub_1_associate</text>
</g>
<!-- [root] aws_route_table_association.pub_sub_1_associate (expand)&#45;&gt;[root] aws_route_table.pub_rt (expand) -->
<g id="edge10" class="edge">
<title>[root] aws_route_table_association.pub_sub_1_associate (expand)&#45;&gt;[root] aws_route_table.pub_rt (expand)</title>
<path fill="none" stroke="black" d="M1006.91,-215.88C1021.16,-206.81 1038.85,-195.55 1054.24,-185.76"/>
<polygon fill="black" stroke="black" points="1056.43,-188.51 1062.99,-180.19 1052.67,-182.61 1056.43,-188.51"/>
</g>
<!-- [root] aws_subnet.pub_sub_1 (expand) -->
<g id="node11" class="node">
<title>[root] aws_subnet.pub_sub_1 (expand)</title>
<polygon fill="none" stroke="black" points="997,-180 847,-180 847,-144 997,-144 997,-180"/>
<text text-anchor="middle" x="922" y="-158.3" font-family="Times New Roman,serif" font-size="14.00">aws_subnet.pub_sub_1</text>
</g>
<!-- [root] aws_route_table_association.pub_sub_1_associate (expand)&#45;&gt;[root] aws_subnet.pub_sub_1 (expand) -->
<g id="edge11" class="edge">
<title>[root] aws_route_table_association.pub_sub_1_associate (expand)&#45;&gt;[root] aws_subnet.pub_sub_1 (expand)</title>
<path fill="none" stroke="black" d="M965.66,-215.7C958.71,-207.3 950.23,-197.07 942.6,-187.86"/>
<polygon fill="black" stroke="black" points="945.25,-185.57 936.17,-180.1 939.86,-190.04 945.25,-185.57"/>
</g>
<!-- [root] aws_route_table_association.pub_sub_2_associate (expand) -->
<g id="node8" class="node">
<title>[root] aws_route_table_association.pub_sub_2_associate (expand)</title>
<polygon fill="none" stroke="black" points="1454,-252 1150,-252 1150,-216 1454,-216 1454,-252"/>
<text text-anchor="middle" x="1302" y="-230.3" font-family="Times New Roman,serif" font-size="14.00">aws_route_table_association.pub_sub_2_associate</text>
</g>
<!-- [root] aws_route_table_association.pub_sub_2_associate (expand)&#45;&gt;[root] aws_route_table.pub_rt (expand) -->
<g id="edge12" class="edge">
<title>[root] aws_route_table_association.pub_sub_2_associate (expand)&#45;&gt;[root] aws_route_table.pub_rt (expand)</title>
<path fill="none" stroke="black" d="M1250.41,-215.97C1220.53,-206.1 1182.74,-193.62 1151.34,-183.25"/>
<polygon fill="black" stroke="black" points="1152.41,-179.92 1141.82,-180.11 1150.22,-186.57 1152.41,-179.92"/>
</g>
<!-- [root] aws_subnet.pub_sub_2 (expand) -->
<g id="node12" class="node">
<title>[root] aws_subnet.pub_sub_2 (expand)</title>
<polygon fill="none" stroke="black" points="1355,-180 1205,-180 1205,-144 1355,-144 1355,-180"/>
<text text-anchor="middle" x="1280" y="-158.3" font-family="Times New Roman,serif" font-size="14.00">aws_subnet.pub_sub_2</text>
</g>
<!-- [root] aws_route_table_association.pub_sub_2_associate (expand)&#45;&gt;[root] aws_subnet.pub_sub_2 (expand) -->
<g id="edge13" class="edge">
<title>[root] aws_route_table_association.pub_sub_2_associate (expand)&#45;&gt;[root] aws_subnet.pub_sub_2 (expand)</title>
<path fill="none" stroke="black" d="M1296.56,-215.7C1294.11,-207.9 1291.16,-198.51 1288.43,-189.83"/>
<polygon fill="black" stroke="black" points="1291.71,-188.59 1285.38,-180.1 1285.04,-190.69 1291.71,-188.59"/>
</g>
<!-- [root] aws_subnet.private_sub_1 (expand)&#45;&gt;[root] aws_vpc.tf_vpc (expand) -->
<g id="edge14" class="edge">
<title>[root] aws_subnet.private_sub_1 (expand)&#45;&gt;[root] aws_vpc.tf_vpc (expand)</title>
<path fill="none" stroke="black" d="M254.02,-146.11C258.75,-145.37 263.43,-144.66 268,-144 412.48,-123.2 582.97,-105.68 673.33,-96.95"/>
<polygon fill="black" stroke="black" points="673.79,-100.42 683.41,-95.98 673.12,-93.46 673.79,-100.42"/>
</g>
<!-- [root] aws_subnet.private_sub_2 (expand)&#45;&gt;[root] aws_vpc.tf_vpc (expand) -->
<g id="edge15" class="edge">
<title>[root] aws_subnet.private_sub_2 (expand)&#45;&gt;[root] aws_vpc.tf_vpc (expand)</title>
<path fill="none" stroke="black" d="M591.21,-143.88C618.07,-134.14 651.88,-121.87 680.18,-111.61"/>
<polygon fill="black" stroke="black" points="681.73,-114.77 689.94,-108.07 679.35,-108.19 681.73,-114.77"/>
</g>
<!-- [root] aws_subnet.pub_sub_1 (expand)&#45;&gt;[root] aws_vpc.tf_vpc (expand) -->
<g id="edge16" class="edge">
<title>[root] aws_subnet.pub_sub_1 (expand)&#45;&gt;[root] aws_vpc.tf_vpc (expand)</title>
<path fill="none" stroke="black" d="M876.74,-143.88C851,-134.14 818.59,-121.87 791.46,-111.61"/>
<polygon fill="black" stroke="black" points="792.7,-108.33 782.11,-108.07 790.22,-114.88 792.7,-108.33"/>
</g>
<!-- [root] aws_subnet.pub_sub_2 (expand)&#45;&gt;[root] aws_vpc.tf_vpc (expand) -->
<g id="edge17" class="edge">
<title>[root] aws_subnet.pub_sub_2 (expand)&#45;&gt;[root] aws_vpc.tf_vpc (expand)</title>
<path fill="none" stroke="black" d="M1204.78,-148.57C1194.44,-146.97 1183.97,-145.4 1174,-144 1041.46,-125.34 885.75,-107.41 800.6,-97.94"/>
<polygon fill="black" stroke="black" points="800.89,-94.45 790.57,-96.83 800.12,-101.41 800.89,-94.45"/>
</g>
<!-- [root] provider[&quot;registry.terraform.io/hashicorp/aws&quot;] -->
<g id="node14" class="node">
<title>[root] provider[&quot;registry.terraform.io/hashicorp/aws&quot;]</title>
<polygon fill="none" stroke="black" points="426,-36 168.77,-18 426,0 683.23,-18 426,-36"/>
<text text-anchor="middle" x="426" y="-14.3" font-family="Times New Roman,serif" font-size="14.00">provider[&quot;registry.terraform.io/hashicorp/aws&quot;]</text>
</g>
<!-- [root] aws_vpc.tf_vpc (expand)&#45;&gt;[root] provider[&quot;registry.terraform.io/hashicorp/aws&quot;] -->
<g id="edge18" class="edge">
<title>[root] aws_vpc.tf_vpc (expand)&#45;&gt;[root] provider[&quot;registry.terraform.io/hashicorp/aws&quot;]</title>
<path fill="none" stroke="black" d="M683.18,-76.89C630.62,-65.06 550.45,-47.01 493.61,-34.22"/>
<polygon fill="black" stroke="black" points="494.16,-30.75 483.64,-31.97 492.62,-37.58 494.16,-30.75"/>
</g>
<!-- [root] var.owner -->
<g id="node15" class="node">
<title>[root] var.owner</title>
<polygon fill="none" stroke="black" points="767,-36 701,-36 701,0 773,0 773,-30 767,-36"/>
<polyline fill="none" stroke="black" points="767,-36 767,-30"/>
<polyline fill="none" stroke="black" points="773,-30 767,-30"/>
<text text-anchor="middle" x="737" y="-14.3" font-family="Times New Roman,serif" font-size="14.00">var.owner</text>
</g>
<!-- [root] aws_vpc.tf_vpc (expand)&#45;&gt;[root] var.owner -->
<g id="edge19" class="edge">
<title>[root] aws_vpc.tf_vpc (expand)&#45;&gt;[root] var.owner</title>
<path fill="none" stroke="black" d="M737,-71.7C737,-63.98 737,-54.71 737,-46.11"/>
<polygon fill="black" stroke="black" points="740.5,-46.1 737,-36.1 733.5,-46.1 740.5,-46.1"/>
</g>
<!-- [root] var.vpc_cidr_block -->
<g id="node16" class="node">
<title>[root] var.vpc_cidr_block</title>
<polygon fill="none" stroke="black" points="912.5,-36 791.5,-36 791.5,0 918.5,0 918.5,-30 912.5,-36"/>
<polyline fill="none" stroke="black" points="912.5,-36 912.5,-30"/>
<polyline fill="none" stroke="black" points="918.5,-30 912.5,-30"/>
<text text-anchor="middle" x="855" y="-14.3" font-family="Times New Roman,serif" font-size="14.00">var.vpc_cidr_block</text>
</g>
<!-- [root] aws_vpc.tf_vpc (expand)&#45;&gt;[root] var.vpc_cidr_block -->
<g id="edge20" class="edge">
<title>[root] aws_vpc.tf_vpc (expand)&#45;&gt;[root] var.vpc_cidr_block</title>
<path fill="none" stroke="black" d="M765.87,-71.88C781.29,-62.72 800.48,-51.34 817.1,-41.48"/>
<polygon fill="black" stroke="black" points="819.21,-44.3 826.02,-36.19 815.64,-38.28 819.21,-44.3"/>
</g>
<!-- [root] provider[&quot;registry.terraform.io/hashicorp/aws&quot;] (close) -->
<g id="node17" class="node">
<title>[root] provider[&quot;registry.terraform.io/hashicorp/aws&quot;] (close)</title>
<ellipse fill="none" stroke="black" cx="743" cy="-306" rx="232.86" ry="18"/>
<text text-anchor="middle" x="743" y="-302.3" font-family="Times New Roman,serif" font-size="14.00">[root] provider[&quot;registry.terraform.io/hashicorp/aws&quot;] (close)</text>
</g>
<!-- [root] provider[&quot;registry.terraform.io/hashicorp/aws&quot;] (close)&#45;&gt;[root] aws_route.igw_route (expand) -->
<g id="edge21" class="edge">
<title>[root] provider[&quot;registry.terraform.io/hashicorp/aws&quot;] (close)&#45;&gt;[root] aws_route.igw_route (expand)</title>
<path fill="none" stroke="black" d="M743,-287.7C743,-279.98 743,-270.71 743,-262.11"/>
<polygon fill="black" stroke="black" points="746.5,-262.1 743,-252.1 739.5,-262.1 746.5,-262.1"/>
</g>
<!-- [root] provider[&quot;registry.terraform.io/hashicorp/aws&quot;] (close)&#45;&gt;[root] aws_route_table_association.private_sub_1_associate (expand) -->
<g id="edge22" class="edge">
<title>[root] provider[&quot;registry.terraform.io/hashicorp/aws&quot;] (close)&#45;&gt;[root] aws_route_table_association.private_sub_1_associate (expand)</title>
<path fill="none" stroke="black" d="M622.91,-290.58C532.85,-279.77 408.93,-264.89 311.97,-253.25"/>
<polygon fill="black" stroke="black" points="312.12,-249.74 301.78,-252.02 311.29,-256.69 312.12,-249.74"/>
</g>
<!-- [root] provider[&quot;registry.terraform.io/hashicorp/aws&quot;] (close)&#45;&gt;[root] aws_route_table_association.private_sub_2_associate (expand) -->
<g id="edge23" class="edge">
<title>[root] provider[&quot;registry.terraform.io/hashicorp/aws&quot;] (close)&#45;&gt;[root] aws_route_table_association.private_sub_2_associate (expand)</title>
<path fill="none" stroke="black" d="M685.25,-288.5C650.06,-278.44 604.86,-265.53 567.68,-254.91"/>
<polygon fill="black" stroke="black" points="568.5,-251.5 557.92,-252.12 566.58,-258.23 568.5,-251.5"/>
</g>
<!-- [root] provider[&quot;registry.terraform.io/hashicorp/aws&quot;] (close)&#45;&gt;[root] aws_route_table_association.pub_sub_1_associate (expand) -->
<g id="edge24" class="edge">
<title>[root] provider[&quot;registry.terraform.io/hashicorp/aws&quot;] (close)&#45;&gt;[root] aws_route_table_association.pub_sub_1_associate (expand)</title>
<path fill="none" stroke="black" d="M798.87,-288.5C832.76,-278.49 876.26,-265.64 912.13,-255.05"/>
<polygon fill="black" stroke="black" points="913.44,-258.31 922.03,-252.12 911.45,-251.6 913.44,-258.31"/>
</g>
<!-- [root] provider[&quot;registry.terraform.io/hashicorp/aws&quot;] (close)&#45;&gt;[root] aws_route_table_association.pub_sub_2_associate (expand) -->
<g id="edge25" class="edge">
<title>[root] provider[&quot;registry.terraform.io/hashicorp/aws&quot;] (close)&#45;&gt;[root] aws_route_table_association.pub_sub_2_associate (expand)</title>
<path fill="none" stroke="black" d="M859.5,-290.41C945.72,-279.62 1063.73,-264.84 1156.2,-253.26"/>
<polygon fill="black" stroke="black" points="1156.72,-256.72 1166.2,-252 1155.85,-249.77 1156.72,-256.72"/>
</g>
<!-- [root] root -->
<g id="node18" class="node">
<title>[root] root</title>
<ellipse fill="none" stroke="black" cx="743" cy="-378" rx="49.29" ry="18"/>
<text text-anchor="middle" x="743" y="-374.3" font-family="Times New Roman,serif" font-size="14.00">[root] root</text>
</g>
<!-- [root] root&#45;&gt;[root] provider[&quot;registry.terraform.io/hashicorp/aws&quot;] (close) -->
<g id="edge26" class="edge">
<title>[root] root&#45;&gt;[root] provider[&quot;registry.terraform.io/hashicorp/aws&quot;] (close)</title>
<path fill="none" stroke="black" d="M743,-359.7C743,-351.98 743,-342.71 743,-334.11"/>
<polygon fill="black" stroke="black" points="746.5,-334.1 743,-324.1 739.5,-334.1 746.5,-334.1"/>
</g>
</g>
</svg>
