<?xml version="1.0" encoding="UTF-8" standalone="no"?>
<!DOCTYPE svg PUBLIC "-//W3C//DTD SVG 1.1//EN"
 "http://www.w3.org/Graphics/SVG/1.1/DTD/svg11.dtd">
<!-- Generated by graphviz version 3.0.0 (20220226.1711)
 -->
<!-- Pages: 1 -->
<svg width="1563pt" height="404pt"
 viewBox="0.00 0.00 1562.81 404.00" xmlns="http://www.w3.org/2000/svg" xmlns:xlink="http://www.w3.org/1999/xlink">
<g id="graph0" class="graph" transform="scale(1 1) rotate(0) translate(4 400)">
<polygon fill="white" stroke="transparent" points="-4,4 -4,-400 1558.81,-400 1558.81,4 -4,4"/>
<!-- [root] aws_instance.public_instance (expand) -->
<g id="node1" class="node">
<title>[root] aws_instance.public_instance (expand)</title>
<polygon fill="none" stroke="black" points="443.31,-108 261.31,-108 261.31,-72 443.31,-72 443.31,-108"/>
<text text-anchor="middle" x="352.31" y="-86.3" font-family="Times New Roman,serif" font-size="14.00">aws_instance.public_instance</text>
</g>
<!-- [root] provider[&quot;registry.terraform.io/hashicorp/aws&quot;] -->
<g id="node15" class="node">
<title>[root] provider[&quot;registry.terraform.io/hashicorp/aws&quot;]</title>
<polygon fill="none" stroke="black" points="441.31,-36 184.09,-18 441.31,0 698.54,-18 441.31,-36"/>
<text text-anchor="middle" x="441.31" y="-14.3" font-family="Times New Roman,serif" font-size="14.00">provider[&quot;registry.terraform.io/hashicorp/aws&quot;]</text>
</g>
<!-- [root] aws_instance.public_instance (expand)&#45;&gt;[root] provider[&quot;registry.terraform.io/hashicorp/aws&quot;] -->
<g id="edge1" class="edge">
<title>[root] aws_instance.public_instance (expand)&#45;&gt;[root] provider[&quot;registry.terraform.io/hashicorp/aws&quot;]</title>
<path fill="none" stroke="black" d="M374.31,-71.7C386.14,-62.4 400.84,-50.84 413.45,-40.91"/>
<polygon fill="black" stroke="black" points="415.69,-43.6 421.39,-34.67 411.37,-38.1 415.69,-43.6"/>
</g>
<!-- [root] aws_internet_gateway.golden_igw (expand) -->
<g id="node2" class="node">
<title>[root] aws_internet_gateway.golden_igw (expand)</title>
<polygon fill="none" stroke="black" points="1554.81,-180 1347.81,-180 1347.81,-144 1554.81,-144 1554.81,-180"/>
<text text-anchor="middle" x="1451.31" y="-158.3" font-family="Times New Roman,serif" font-size="14.00">aws_internet_gateway.golden_igw</text>
</g>
<!-- [root] aws_vpc.golden_vpc (expand) -->
<g id="node14" class="node">
<title>[root] aws_vpc.golden_vpc (expand)</title>
<polygon fill="none" stroke="black" points="862.81,-108 725.81,-108 725.81,-72 862.81,-72 862.81,-108"/>
<text text-anchor="middle" x="794.31" y="-86.3" font-family="Times New Roman,serif" font-size="14.00">aws_vpc.golden_vpc</text>
</g>
<!-- [root] aws_internet_gateway.golden_igw (expand)&#45;&gt;[root] aws_vpc.golden_vpc (expand) -->
<g id="edge2" class="edge">
<title>[root] aws_internet_gateway.golden_igw (expand)&#45;&gt;[root] aws_vpc.golden_vpc (expand)</title>
<path fill="none" stroke="black" d="M1347.74,-147.9C1336.46,-146.55 1325.15,-145.22 1314.31,-144 1158.05,-126.34 975.06,-108.3 873.13,-98.49"/>
<polygon fill="black" stroke="black" points="873.21,-94.98 862.92,-97.51 872.54,-101.95 873.21,-94.98"/>
</g>
<!-- [root] aws_route.igw_route (expand) -->
<g id="node3" class="node">
<title>[root] aws_route.igw_route (expand)</title>
<polygon fill="none" stroke="black" points="1542.31,-252 1408.31,-252 1408.31,-216 1542.31,-216 1542.31,-252"/>
<text text-anchor="middle" x="1475.31" y="-230.3" font-family="Times New Roman,serif" font-size="14.00">aws_route.igw_route</text>
</g>
<!-- [root] aws_route.igw_route (expand)&#45;&gt;[root] aws_internet_gateway.golden_igw (expand) -->
<g id="edge3" class="edge">
<title>[root] aws_route.igw_route (expand)&#45;&gt;[root] aws_internet_gateway.golden_igw (expand)</title>
<path fill="none" stroke="black" d="M1469.38,-215.7C1466.71,-207.9 1463.49,-198.51 1460.51,-189.83"/>
<polygon fill="black" stroke="black" points="1463.73,-188.43 1457.18,-180.1 1457.11,-190.7 1463.73,-188.43"/>
</g>
<!-- [root] aws_route_table.public_rt (expand) -->
<g id="node5" class="node">
<title>[root] aws_route_table.public_rt (expand)</title>
<polygon fill="none" stroke="black" points="1137.31,-180 975.31,-180 975.31,-144 1137.31,-144 1137.31,-180"/>
<text text-anchor="middle" x="1056.31" y="-158.3" font-family="Times New Roman,serif" font-size="14.00">aws_route_table.public_rt</text>
</g>
<!-- [root] aws_route.igw_route (expand)&#45;&gt;[root] aws_route_table.public_rt (expand) -->
<g id="edge4" class="edge">
<title>[root] aws_route.igw_route (expand)&#45;&gt;[root] aws_route_table.public_rt (expand)</title>
<path fill="none" stroke="black" d="M1408.24,-217.7C1405.22,-217.1 1402.24,-216.53 1399.31,-216 1290.75,-196.17 1260.09,-198.4 1147.75,-180.19"/>
<polygon fill="black" stroke="black" points="1148.15,-176.71 1137.72,-178.55 1147.02,-183.62 1148.15,-176.71"/>
</g>
<!-- [root] aws_route_table.private_rt (expand) -->
<g id="node4" class="node">
<title>[root] aws_route_table.private_rt (expand)</title>
<polygon fill="none" stroke="black" points="604.81,-180 439.81,-180 439.81,-144 604.81,-144 604.81,-180"/>
<text text-anchor="middle" x="522.31" y="-158.3" font-family="Times New Roman,serif" font-size="14.00">aws_route_table.private_rt</text>
</g>
<!-- [root] aws_route_table.private_rt (expand)&#45;&gt;[root] aws_vpc.golden_vpc (expand) -->
<g id="edge5" class="edge">
<title>[root] aws_route_table.private_rt (expand)&#45;&gt;[root] aws_vpc.golden_vpc (expand)</title>
<path fill="none" stroke="black" d="M588.5,-143.97C627.58,-133.91 677.21,-121.14 717.94,-110.65"/>
<polygon fill="black" stroke="black" points="719.01,-113.99 727.83,-108.11 717.27,-107.21 719.01,-113.99"/>
</g>
<!-- [root] aws_route_table.public_rt (expand)&#45;&gt;[root] aws_vpc.golden_vpc (expand) -->
<g id="edge6" class="edge">
<title>[root] aws_route_table.public_rt (expand)&#45;&gt;[root] aws_vpc.golden_vpc (expand)</title>
<path fill="none" stroke="black" d="M992.56,-143.97C954.99,-133.93 907.31,-121.19 868.13,-110.72"/>
<polygon fill="black" stroke="black" points="868.92,-107.31 858.36,-108.11 867.11,-114.07 868.92,-107.31"/>
</g>
<!-- [root] aws_route_table_association.private_sub_1_associtation (expand) -->
<g id="node6" class="node">
<title>[root] aws_route_table_association.private_sub_1_associtation (expand)</title>
<polygon fill="none" stroke="black" points="362.81,-252 27.81,-252 27.81,-216 362.81,-216 362.81,-252"/>
<text text-anchor="middle" x="195.31" y="-230.3" font-family="Times New Roman,serif" font-size="14.00">aws_route_table_association.private_sub_1_associtation</text>
</g>
<!-- [root] aws_route_table_association.private_sub_1_associtation (expand)&#45;&gt;[root] aws_route_table.private_rt (expand) -->
<g id="edge7" class="edge">
<title>[root] aws_route_table_association.private_sub_1_associtation (expand)&#45;&gt;[root] aws_route_table.private_rt (expand)</title>
<path fill="none" stroke="black" d="M274.89,-215.97C322.55,-205.76 383.27,-192.76 432.63,-182.2"/>
<polygon fill="black" stroke="black" points="433.62,-185.57 442.67,-180.05 432.15,-178.72 433.62,-185.57"/>
</g>
<!-- [root] aws_subnet.private_sub_1 (expand) -->
<g id="node10" class="node">
<title>[root] aws_subnet.private_sub_1 (expand)</title>
<polygon fill="none" stroke="black" points="349.31,-180 183.31,-180 183.31,-144 349.31,-144 349.31,-180"/>
<text text-anchor="middle" x="266.31" y="-158.3" font-family="Times New Roman,serif" font-size="14.00">aws_subnet.private_sub_1</text>
</g>
<!-- [root] aws_route_table_association.private_sub_1_associtation (expand)&#45;&gt;[root] aws_subnet.private_sub_1 (expand) -->
<g id="edge8" class="edge">
<title>[root] aws_route_table_association.private_sub_1_associtation (expand)&#45;&gt;[root] aws_subnet.private_sub_1 (expand)</title>
<path fill="none" stroke="black" d="M212.86,-215.7C221.55,-207.14 232.18,-196.66 241.66,-187.3"/>
<polygon fill="black" stroke="black" points="244.3,-189.62 248.97,-180.1 239.39,-184.63 244.3,-189.62"/>
</g>
<!-- [root] aws_route_table_association.private_sub_2_associtation (expand) -->
<g id="node7" class="node">
<title>[root] aws_route_table_association.private_sub_2_associtation (expand)</title>
<polygon fill="none" stroke="black" points="715.81,-252 380.81,-252 380.81,-216 715.81,-216 715.81,-252"/>
<text text-anchor="middle" x="548.31" y="-230.3" font-family="Times New Roman,serif" font-size="14.00">aws_route_table_association.private_sub_2_associtation</text>
</g>
<!-- [root] aws_route_table_association.private_sub_2_associtation (expand)&#45;&gt;[root] aws_route_table.private_rt (expand) -->
<g id="edge9" class="edge">
<title>[root] aws_route_table_association.private_sub_2_associtation (expand)&#45;&gt;[root] aws_route_table.private_rt (expand)</title>
<path fill="none" stroke="black" d="M541.89,-215.7C538.96,-207.81 535.43,-198.3 532.17,-189.55"/>
<polygon fill="black" stroke="black" points="535.43,-188.26 528.67,-180.1 528.87,-190.7 535.43,-188.26"/>
</g>
<!-- [root] aws_subnet.private_sub_2 (expand) -->
<g id="node11" class="node">
<title>[root] aws_subnet.private_sub_2 (expand)</title>
<polygon fill="none" stroke="black" points="789.31,-180 623.31,-180 623.31,-144 789.31,-144 789.31,-180"/>
<text text-anchor="middle" x="706.31" y="-158.3" font-family="Times New Roman,serif" font-size="14.00">aws_subnet.private_sub_2</text>
</g>
<!-- [root] aws_route_table_association.private_sub_2_associtation (expand)&#45;&gt;[root] aws_subnet.private_sub_2 (expand) -->
<g id="edge10" class="edge">
<title>[root] aws_route_table_association.private_sub_2_associtation (expand)&#45;&gt;[root] aws_subnet.private_sub_2 (expand)</title>
<path fill="none" stroke="black" d="M586.97,-215.88C608.56,-206.31 635.67,-194.3 658.58,-184.15"/>
<polygon fill="black" stroke="black" points="660.06,-187.32 667.79,-180.07 657.23,-180.92 660.06,-187.32"/>
</g>
<!-- [root] aws_route_table_association.pub_sub_1_associtation (expand) -->
<g id="node8" class="node">
<title>[root] aws_route_table_association.pub_sub_1_associtation (expand)</title>
<polygon fill="none" stroke="black" points="1052.81,-252 733.81,-252 733.81,-216 1052.81,-216 1052.81,-252"/>
<text text-anchor="middle" x="893.31" y="-230.3" font-family="Times New Roman,serif" font-size="14.00">aws_route_table_association.pub_sub_1_associtation</text>
</g>
<!-- [root] aws_route_table_association.pub_sub_1_associtation (expand)&#45;&gt;[root] aws_route_table.public_rt (expand) -->
<g id="edge11" class="edge">
<title>[root] aws_route_table_association.pub_sub_1_associtation (expand)&#45;&gt;[root] aws_route_table.public_rt (expand)</title>
<path fill="none" stroke="black" d="M933.19,-215.88C955.47,-206.31 983.43,-194.3 1007.07,-184.15"/>
<polygon fill="black" stroke="black" points="1008.76,-187.23 1016.57,-180.07 1006,-180.8 1008.76,-187.23"/>
</g>
<!-- [root] aws_subnet.pub_sub_1 (expand) -->
<g id="node12" class="node">
<title>[root] aws_subnet.pub_sub_1 (expand)</title>
<polygon fill="none" stroke="black" points="957.31,-180 807.31,-180 807.31,-144 957.31,-144 957.31,-180"/>
<text text-anchor="middle" x="882.31" y="-158.3" font-family="Times New Roman,serif" font-size="14.00">aws_subnet.pub_sub_1</text>
</g>
<!-- [root] aws_route_table_association.pub_sub_1_associtation (expand)&#45;&gt;[root] aws_subnet.pub_sub_1 (expand) -->
<g id="edge12" class="edge">
<title>[root] aws_route_table_association.pub_sub_1_associtation (expand)&#45;&gt;[root] aws_subnet.pub_sub_1 (expand)</title>
<path fill="none" stroke="black" d="M890.59,-215.7C889.38,-207.98 887.93,-198.71 886.57,-190.11"/>
<polygon fill="black" stroke="black" points="890.01,-189.44 885,-180.1 883.1,-190.53 890.01,-189.44"/>
</g>
<!-- [root] aws_route_table_association.pub_sub_2_associtation (expand) -->
<g id="node9" class="node">
<title>[root] aws_route_table_association.pub_sub_2_associtation (expand)</title>
<polygon fill="none" stroke="black" points="1389.81,-252 1070.81,-252 1070.81,-216 1389.81,-216 1389.81,-252"/>
<text text-anchor="middle" x="1230.31" y="-230.3" font-family="Times New Roman,serif" font-size="14.00">aws_route_table_association.pub_sub_2_associtation</text>
</g>
<!-- [root] aws_route_table_association.pub_sub_2_associtation (expand)&#45;&gt;[root] aws_route_table.public_rt (expand) -->
<g id="edge13" class="edge">
<title>[root] aws_route_table_association.pub_sub_2_associtation (expand)&#45;&gt;[root] aws_route_table.public_rt (expand)</title>
<path fill="none" stroke="black" d="M1187.75,-215.88C1163.75,-206.22 1133.59,-194.09 1108.21,-183.88"/>
<polygon fill="black" stroke="black" points="1109.32,-180.55 1098.74,-180.07 1106.71,-187.05 1109.32,-180.55"/>
</g>
<!-- [root] aws_subnet.pub_sub_2 (expand) -->
<g id="node13" class="node">
<title>[root] aws_subnet.pub_sub_2 (expand)</title>
<polygon fill="none" stroke="black" points="1305.31,-180 1155.31,-180 1155.31,-144 1305.31,-144 1305.31,-180"/>
<text text-anchor="middle" x="1230.31" y="-158.3" font-family="Times New Roman,serif" font-size="14.00">aws_subnet.pub_sub_2</text>
</g>
<!-- [root] aws_route_table_association.pub_sub_2_associtation (expand)&#45;&gt;[root] aws_subnet.pub_sub_2 (expand) -->
<g id="edge14" class="edge">
<title>[root] aws_route_table_association.pub_sub_2_associtation (expand)&#45;&gt;[root] aws_subnet.pub_sub_2 (expand)</title>
<path fill="none" stroke="black" d="M1230.31,-215.7C1230.31,-207.98 1230.31,-198.71 1230.31,-190.11"/>
<polygon fill="black" stroke="black" points="1233.81,-190.1 1230.31,-180.1 1226.81,-190.1 1233.81,-190.1"/>
</g>
<!-- [root] aws_subnet.private_sub_1 (expand)&#45;&gt;[root] aws_vpc.golden_vpc (expand) -->
<g id="edge15" class="edge">
<title>[root] aws_subnet.private_sub_1 (expand)&#45;&gt;[root] aws_vpc.golden_vpc (expand)</title>
<path fill="none" stroke="black" d="M349.39,-149.99C449.67,-136.69 617.04,-114.5 715.41,-101.46"/>
<polygon fill="black" stroke="black" points="716.13,-104.9 725.59,-100.11 715.21,-97.96 716.13,-104.9"/>
</g>
<!-- [root] aws_subnet.private_sub_2 (expand)&#45;&gt;[root] aws_vpc.golden_vpc (expand) -->
<g id="edge16" class="edge">
<title>[root] aws_subnet.private_sub_2 (expand)&#45;&gt;[root] aws_vpc.golden_vpc (expand)</title>
<path fill="none" stroke="black" d="M728.07,-143.7C739.15,-134.88 752.79,-124.03 764.8,-114.47"/>
<polygon fill="black" stroke="black" points="767.16,-117.07 772.81,-108.1 762.81,-111.59 767.16,-117.07"/>
</g>
<!-- [root] aws_subnet.pub_sub_1 (expand)&#45;&gt;[root] aws_vpc.golden_vpc (expand) -->
<g id="edge17" class="edge">
<title>[root] aws_subnet.pub_sub_1 (expand)&#45;&gt;[root] aws_vpc.golden_vpc (expand)</title>
<path fill="none" stroke="black" d="M860.56,-143.7C849.48,-134.88 835.84,-124.03 823.82,-114.47"/>
<polygon fill="black" stroke="black" points="825.82,-111.59 815.82,-108.1 821.46,-117.07 825.82,-111.59"/>
</g>
<!-- [root] aws_subnet.pub_sub_2 (expand)&#45;&gt;[root] aws_vpc.golden_vpc (expand) -->
<g id="edge18" class="edge">
<title>[root] aws_subnet.pub_sub_2 (expand)&#45;&gt;[root] aws_vpc.golden_vpc (expand)</title>
<path fill="none" stroke="black" d="M1155.24,-145.61C1152.23,-145.06 1149.24,-144.52 1146.31,-144 1052.78,-127.5 944.68,-111.71 873.22,-101.72"/>
<polygon fill="black" stroke="black" points="873.33,-98.21 862.95,-100.29 872.37,-105.14 873.33,-98.21"/>
</g>
<!-- [root] aws_vpc.golden_vpc (expand)&#45;&gt;[root] provider[&quot;registry.terraform.io/hashicorp/aws&quot;] -->
<g id="edge19" class="edge">
<title>[root] aws_vpc.golden_vpc (expand)&#45;&gt;[root] provider[&quot;registry.terraform.io/hashicorp/aws&quot;]</title>
<path fill="none" stroke="black" d="M725.41,-75.34C664.78,-63.31 576.76,-45.86 514.8,-33.57"/>
<polygon fill="black" stroke="black" points="515.19,-30.08 504.7,-31.57 513.83,-36.95 515.19,-30.08"/>
</g>
<!-- [root] provider[&quot;registry.terraform.io/hashicorp/aws&quot;] (close) -->
<g id="node16" class="node">
<title>[root] provider[&quot;registry.terraform.io/hashicorp/aws&quot;] (close)</title>
<ellipse fill="none" stroke="black" cx="720.31" cy="-306" rx="232.86" ry="18"/>
<text text-anchor="middle" x="720.31" y="-302.3" font-family="Times New Roman,serif" font-size="14.00">[root] provider[&quot;registry.terraform.io/hashicorp/aws&quot;] (close)</text>
</g>
<!-- [root] provider[&quot;registry.terraform.io/hashicorp/aws&quot;] (close)&#45;&gt;[root] aws_instance.public_instance (expand) -->
<g id="edge20" class="edge">
<title>[root] provider[&quot;registry.terraform.io/hashicorp/aws&quot;] (close)&#45;&gt;[root] aws_instance.public_instance (expand)</title>
<path fill="none" stroke="black" d="M490.96,-302.92C298.65,-298.71 50.36,-286.56 18.31,-252 -58.5,-169.17 126.97,-124.24 251.21,-104.18"/>
<polygon fill="black" stroke="black" points="251.84,-107.62 261.17,-102.6 250.74,-100.71 251.84,-107.62"/>
</g>
<!-- [root] provider[&quot;registry.terraform.io/hashicorp/aws&quot;] (close)&#45;&gt;[root] aws_route.igw_route (expand) -->
<g id="edge21" class="edge">
<title>[root] provider[&quot;registry.terraform.io/hashicorp/aws&quot;] (close)&#45;&gt;[root] aws_route.igw_route (expand)</title>
<path fill="none" stroke="black" d="M920.96,-296.84C1053.94,-289.63 1232.29,-276.52 1398.36,-252.02"/>
<polygon fill="black" stroke="black" points="1398.9,-255.48 1408.27,-250.54 1397.87,-248.55 1398.9,-255.48"/>
</g>
<!-- [root] provider[&quot;registry.terraform.io/hashicorp/aws&quot;] (close)&#45;&gt;[root] aws_route_table_association.private_sub_1_associtation (expand) -->
<g id="edge22" class="edge">
<title>[root] provider[&quot;registry.terraform.io/hashicorp/aws&quot;] (close)&#45;&gt;[root] aws_route_table_association.private_sub_1_associtation (expand)</title>
<path fill="none" stroke="black" d="M608.97,-290.15C528.49,-279.42 419.23,-264.86 333.22,-253.39"/>
<polygon fill="black" stroke="black" points="333.49,-249.89 323.11,-252.04 332.56,-256.83 333.49,-249.89"/>
</g>
<!-- [root] provider[&quot;registry.terraform.io/hashicorp/aws&quot;] (close)&#45;&gt;[root] aws_route_table_association.private_sub_2_associtation (expand) -->
<g id="edge23" class="edge">
<title>[root] provider[&quot;registry.terraform.io/hashicorp/aws&quot;] (close)&#45;&gt;[root] aws_route_table_association.private_sub_2_associtation (expand)</title>
<path fill="none" stroke="black" d="M679.12,-288.23C655.32,-278.55 625.18,-266.28 599.83,-255.97"/>
<polygon fill="black" stroke="black" points="600.95,-252.64 590.37,-252.12 598.31,-259.13 600.95,-252.64"/>
</g>
<!-- [root] provider[&quot;registry.terraform.io/hashicorp/aws&quot;] (close)&#45;&gt;[root] aws_route_table_association.pub_sub_1_associtation (expand) -->
<g id="edge24" class="edge">
<title>[root] provider[&quot;registry.terraform.io/hashicorp/aws&quot;] (close)&#45;&gt;[root] aws_route_table_association.pub_sub_1_associtation (expand)</title>
<path fill="none" stroke="black" d="M761.75,-288.23C785.68,-278.55 816,-266.28 841.5,-255.97"/>
<polygon fill="black" stroke="black" points="843.06,-259.11 851.01,-252.12 840.43,-252.62 843.06,-259.11"/>
</g>
<!-- [root] provider[&quot;registry.terraform.io/hashicorp/aws&quot;] (close)&#45;&gt;[root] aws_route_table_association.pub_sub_2_associtation (expand) -->
<g id="edge25" class="edge">
<title>[root] provider[&quot;registry.terraform.io/hashicorp/aws&quot;] (close)&#45;&gt;[root] aws_route_table_association.pub_sub_2_associtation (expand)</title>
<path fill="none" stroke="black" d="M829.1,-290.07C907.11,-279.36 1012.69,-264.87 1095.96,-253.44"/>
<polygon fill="black" stroke="black" points="1096.57,-256.89 1106.01,-252.06 1095.62,-249.95 1096.57,-256.89"/>
</g>
<!-- [root] root -->
<g id="node17" class="node">
<title>[root] root</title>
<ellipse fill="none" stroke="black" cx="720.31" cy="-378" rx="49.29" ry="18"/>
<text text-anchor="middle" x="720.31" y="-374.3" font-family="Times New Roman,serif" font-size="14.00">[root] root</text>
</g>
<!-- [root] root&#45;&gt;[root] provider[&quot;registry.terraform.io/hashicorp/aws&quot;] (close) -->
<g id="edge26" class="edge">
<title>[root] root&#45;&gt;[root] provider[&quot;registry.terraform.io/hashicorp/aws&quot;] (close)</title>
<path fill="none" stroke="black" d="M720.31,-359.7C720.31,-351.98 720.31,-342.71 720.31,-334.11"/>
<polygon fill="black" stroke="black" points="723.81,-334.1 720.31,-324.1 716.81,-334.1 723.81,-334.1"/>
</g>
</g>
</svg>
